0
SECTION
2
HEADER
9
$INSUNITS
70
4
9
$ACADVER
1
AC1014
9
$HANDSEED
5
FFFF
0
ENDSEC
0
SECTION
2
TABLES
0
TABLE
2
VPORT
5
8
100
AcDbSymbolTable
0
ENDTAB
0
TABLE
2
LTYPE
5
5
100
AcDbSymbolTable
0
LTYPE
5
14
100
AcDbSymbolTableRecord
100
AcDbLinetypeTableRecord
2
BYBLOCK
70
0
0
LTYPE
5
15
100
AcDbSymbolTableRecord
100
AcDbLinetypeTableRecord
2
BYLAYER
70
0
0
LTYPE
5
16
100
AcDbSymbolTableRecord
100
AcDbLinetypeTableRecord
2
DASHED
70
0
3
Dashed __ __ __ __ __ __ __ __ __ __ __ __ __ _
72
65
73
2
40
0.75
49
0.5
74
0
49
-0.25
74
0
0
ENDTAB
0
TABLE
2
LAYER
5
2
100
AcDbSymbolTable
70
2
0
LAYER
5
50
100
AcDbSymbolTableRecord
100
AcDbLayerTableRecord
2
0
70
0
62
7
6
CONTINUOUS
0
ENDTAB
0
TABLE
2
STYLE
5
3
100
AcDbSymbolTable
70
1
0
STYLE
5
11
100
AcDbSymbolTableRecord
100
AcDbTextStyleTableRecord
2
STANDARD
70
0
0
ENDTAB
0
TABLE
2
VIEW
5
6
100
AcDbSymbolTable
70
0
0
ENDTAB
0
TABLE
2
UCS
5
7
100
AcDbSymbolTable
70
0
0
ENDTAB
0
TABLE
2
APPID
5
9
100
AcDbSymbolTable
70
2
0
APPID
5
12
100
AcDbSymbolTableRecord
100
AcDbRegAppTableRecord
2
ACAD
70
0
0
ENDTAB
0
TABLE
2
DIMSTYLE
5
A
100
AcDbSymbolTable
70
1
0
ENDTAB
0
TABLE
2
BLOCK_RECORD
5
1
100
AcDbSymbolTable
70
1
0
BLOCK_RECORD
5
1F
100
AcDbSymbolTableRecord
100
AcDbBlockTableRecord
2
*MODEL_SPACE
0
BLOCK_RECORD
5
1B
100
AcDbSymbolTableRecord
100
AcDbBlockTableRecord
2
*PAPER_SPACE
0
ENDTAB
0
ENDSEC
0
SECTION
2
BLOCKS
0
BLOCK
5
20
100
AcDbEntity
100
AcDbBlockBegin
2
*MODEL_SPACE
0
ENDBLK
5
21
100
AcDbEntity
100
AcDbBlockEnd
0
BLOCK
5
1C
100
AcDbEntity
100
AcDbBlockBegin
2
*PAPER_SPACE
0
ENDBLK
5
1D
100
AcDbEntity
100
AcDbBlockEnd
0
ENDSEC
0
SECTION
2
ENTITIES
0
CIRCLE
5
100
100
AcDbEntity
8
0
100
AcDbCircle
10
0
20
-16.028436254237313
30
0
40
25.299999999999997
210
-0
220
2.4651903288156624e-32
230
1
0
CIRCLE
5
101
100
AcDbEntity
8
0
100
AcDbCircle
10
0
20
-16.028436254237313
30
0
40
28.000000000000004
210
0
220
0
230
1
0
ARC
5
102
100
AcDbEntity
8
0
100
AcDbCircle
10
6.6613381477509392e-15
20
-16.028436254237313
30
-4.926439913641935e-46
40
16.100000000000001
210
2.079907775638344e-33
220
-2.4564004546764461e-32
230
1
100
AcDbArc
50
-64.839860661044753
51
4.839860661044149
0
ARC
5
103
100
AcDbEntity
8
0
100
AcDbCircle
10
16.640454537562871
20
-14.619439170030503
30
3.1225022567582528e-16
40
0.59999999999999931
210
0
220
0
230
1
100
AcDbArc
50
119.99999999999974
51
184.83986066104418
0
LINE
5
104
100
AcDbEntity
8
0
100
AcDbLine
10
17.063105190361817
20
-13.682601378836324
30
5.2041704279304213e-16
11
16.340454537562874
21
-14.099823927759839
31
3.1225022567582528e-16
0
LINE
5
105
100
AcDbEntity
8
0
100
AcDbLine
10
9.8404545375629802
20
-2.8414936785620775
30
7.2858385991025898e-16
11
10.563105190361924
21
-2.4242711296385604
31
7.2858385991025898e-16
0
ARC
5
106
100
AcDbEntity
8
0
100
AcDbCircle
10
9.5404545375629866
20
-2.3218784362914109
30
-2.7755575615628914e-16
40
0.60000000000000075
210
0
220
0
230
1
100
AcDbArc
50
235.16013933895482
51
299.99999999999932
0
ARC
5
107
100
AcDbEntity
8
0
100
AcDbCircle
10
-5.5511151231257827e-16
20
-16.028436254237327
30
3.28429327576129e-46
40
16.100000000000016
210
9.8486557564919311e-18
220
1.4149343621303501e-17
230
1
100
AcDbArc
50
55.160139338954785
51
124.83986066104443
0
ARC
5
108
100
AcDbEntity
8
0
100
AcDbCircle
10
-9.5404545375627965
20
-2.3218784362912777
30
-2.7755575615628914e-16
40
0.60000000000000009
210
0
220
0
230
1
100
AcDbArc
50
239.99999999999972
51
304.83986066104444
0
LINE
5
109
100
AcDbEntity
8
0
100
AcDbLine
10
-10.563105190361735
20
-2.4242711296384094
30
-3.1225022567582528e-16
11
-9.840454537562799
21
-2.8414936785619394
31
-2.7755575615628914e-16
0
LINE
5
110
100
AcDbEntity
8
0
100
AcDbLine
10
-16.340454537562856
20
-14.099823927759614
30
4.5102810375396984e-16
11
-17.063105190361789
21
-13.682601378836083
31
4.5102810375396984e-16
0
ARC
5
111
100
AcDbEntity
8
0
100
AcDbCircle
10
-16.64045453756286
20
-14.619439170030279
30
3.1225022567582528e-16
40
0.60000000000000631
210
0
220
0
230
1
100
AcDbArc
50
-4.8398606610443577
51
59.999999999999773
0
ARC
5
112
100
AcDbEntity
8
0
100
AcDbCircle
10
-1.3322676295501878e-14
20
-16.02843625423732
30
-4.7895943604852146e-47
40
16.099999999999987
210
1.9325271263816395e-17
220
-1.6363285510478267e-18
230
1
100
AcDbArc
50
175.16013933895502
51
244.83986066104475
0
ARC
5
113
100
AcDbEntity
8
0
100
AcDbCircle
10
-7.1000000000000041
20
-31.143991156390271
30
0
40
0.60000000000000497
210
0
220
-0
230
1
100
AcDbArc
50
0
51
64.839860661044099
0
LINE
5
114
100
AcDbEntity
8
0
100
AcDbLine
10
-6.5
20
-31.978436254237316
30
-2.0816681711721685e-16
11
-6.4999999999999991
21
-31.143991156390264
31
0
0
LINE
5
115
100
AcDbEntity
8
0
100
AcDbLine
10
6.5
20
-31.143991156390264
30
0
11
6.5
21
-31.978436254237316
31
0
0
ARC
5
116
100
AcDbEntity
8
0
100
AcDbCircle
10
7.0999999999999988
20
-31.143991156390264
30
0
40
0.5999999999999982
210
-2.6373118164362303e-31
220
5.6147086697801871e-31
230
1
100
AcDbArc
50
115.16013933895498
51
180
0
ARC
5
117
100
AcDbEntity
8
0
100
AcDbCircle
10
-5.5511151231257827e-16
20
-16.02843625423731
30
6.56858655152258e-46
40
14.800000000000001
210
-3.4216453388354375e-32
220
6.6833366651567058e-33
230
1
100
AcDbArc
50
56.052159659327614
51
123.94784034067162
0
ARC
5
118
100
AcDbEntity
8
0
100
AcDbCircle
10
-1.1102230246251565e-14
20
-16.02843625423731
30
1.3684555315672042e-46
40
14.80000000000002
210
-1.6972417504477922e-33
220
2.4593407778694757e-32
230
1
100
AcDbArc
50
-63.94784034067181
51
3.9478403406712395
0
ARC
5
119
100
AcDbEntity
8
0
100
AcDbCircle
10
-1.1102230246251565e-14
20
-16.028436254237324
30
3.8316754883881717e-46
40
14.799999999999988
210
-2.4671897150595633e-34
220
2.7560561485751413e-32
230
1
100
AcDbArc
50
176.05215965932794
51
243.94784034067186
0
CIRCLE
5
120
100
AcDbEntity
8
0
100
AcDbCircle
10
0
20
-16.028436254237313
30
0
40
6.8000000000000007
210
0
220
0
230
1
0
LWPOLYLINE
5
121
100
AcDbEntity
8
0
100
AcDbPolyline
90
4
70
1
43
0.0
10
-3.5
20
-19.328436254237314
10
-3.5
20
-12.728436254237314
10
-1.2
20
-12.728436254237312
10
-1.2
20
-19.328436254237314
0
LWPOLYLINE
5
122
100
AcDbEntity
8
0
100
AcDbPolyline
90
4
70
1
43
0.0
10
1.2
20
-12.728436254237312
10
3.5000000000000009
20
-12.728436254237314
10
3.5000000000000009
20
-19.328436254237314
10
1.2
20
-19.328436254237314
0
LWPOLYLINE
5
123
100
AcDbEntity
8
0
100
AcDbPolyline
90
5
70
1
43
0.0
10
8.0000001192092896
20
-33.178436254237319
10
8.0000001192092896
20
-31.978436254237316
10
10.00000011920929
20
-31.978436254237316
10
10.00000011920929
20
-35.27843625423732
10
8.0000001192092896
20
-35.27843625423732
0
LINE
5
124
100
AcDbEntity
8
0
100
AcDbLine
10
8.0000001192092896
20
-31.978436254237316
30
0
11
6.5
21
-31.978436254237316
31
0
0
LINE
5
125
100
AcDbEntity
8
0
100
AcDbLine
10
-6.5
20
-31.978436254237316
30
-2.0816681711721685e-16
11
-8.0000001192092896
21
-31.978436254237316
31
-2.2830093530289859e-16
0
LWPOLYLINE
5
126
100
AcDbEntity
8
0
100
AcDbPolyline
90
5
70
1
43
0.0
10
-8.0000001192092896
20
-31.978436254237316
10
-8.0000001192092896
20
-33.178436254237319
10
-8.0000001192092896
20
-35.27843625423732
10
-10.00000011920929
20
-35.27843625423732
10
-10.00000011920929
20
-31.978436254237316
0
LWPOLYLINE
5
127
100
AcDbEntity
8
0
100
AcDbPolyline
90
11
70
1
43
0.0
10
10.563105190361924
20
-2.4242711296385604
10
9.8131051903619397
20
-1.1252330239618937
10
8.8134820933606761
20
0.60703533398429987
10
11.671724951635076
20
2.2564134830821123
10
12.671348048636339
20
0.52414512513591904
10
13.42111957768177
20
-0.77449725723937113
10
20.673361844363299
20
-13.329439608169469
10
21.673738700015996
20
-15.061272783355353
10
18.813482046014499
20
-16.713472659698873
10
17.813105190361803
20
-14.981639484512989
10
17.063105190361817
20
-13.682601378836324
0
LINE
5
128
100
AcDbEntity
8
0
100
AcDbLine
10
9.8131051903619397
20
-1.1252330239618937
30
7.2858385991025898e-16
11
10.85246622973445
21
-0.52545915156268852
31
9.2207723297949795e-16
0
LINE
5
129
100
AcDbEntity
8
0
100
AcDbLine
10
17.813105190361803
20
-14.981639484512989
30
5.2041704279304213e-16
11
18.85220512007195
21
-14.381413356912214
31
-4.0166019018645572e-16
0
LINE
5
130
100
AcDbEntity
8
0
100
AcDbLine
10
-10.563105190361735
20
-2.4242711296384094
30
-3.1225022567582528e-16
11
-9.8131051903617266
21
-1.1252330239617554
31
-3.1225022567582528e-16
0
LWPOLYLINE
5
131
100
AcDbEntity
8
0
100
AcDbPolyline
90
7
70
1
43
0.0
10
-10.852466229734233
20
-0.52545915156253753
10
-9.8131051903617266
20
-1.1252330239617554
10
-8.8134820933604434
20
0.60703533398442755
10
-11.672007560515155
20
2.2565765654146919
10
-12.671630657516438
20
0.52430820746850904
10
-13.421119577681555
20
-0.77449725723918017
10
-12.671630657516438
20
0.52430820746850904
0
LINE
5
132
100
AcDbEntity
8
0
100
AcDbLine
10
-17.063105190361789
20
-13.682601378836083
30
4.5102810375396984e-16
11
-17.813105190361796
21
-14.981639484512737
31
4.5102810375396984e-16
0
LWPOLYLINE
5
133
100
AcDbEntity
8
0
100
AcDbPolyline
90
5
70
1
43
0.0
10
-18.852205120071936
20
-14.381413356911949
10
-17.813105190361796
20
-14.981639484512737
10
-18.813482022332593
20
-16.713472618700912
10
-21.548687373754134
20
-15.169104934006064
10
-20.55961122883533
20
-13.417367707595591
0
LINE
5
134
100
AcDbEntity
8
0
100
AcDbLine
10
-6.4999999999999991
20
-31.335563249974697
30
2.2983112703427012e-14
11
-6.4999999999999902
21
-29.025871960240231
31
2.2095397579382796e-14
0
LINE
5
135
100
AcDbEntity
8
0
100
AcDbLine
10
6.5
20
-31.978436254237316
30
0
11
6.4999999999999947
21
-29.025871960240419
31
2.0402429881778233e-14
0
LINE
5
136
100
AcDbEntity
8
0
100
AcDbLine
10
16.506360837263394
20
-14.004037880967495
30
-2.7358359841678316e-14
11
14.506109505453676
21
-15.15888352583471
31
-2.6289510362728203e-14
0
LINE
5
137
100
AcDbEntity
8
0
100
AcDbLine
10
8.0000001192092896
20
-3.9040805324298056
30
-1.542206058212203e-14
11
10.00000011920929
21
-2.7493799940505648
31
-5.8386804329009898e-15
0
LINE
5
138
100
AcDbEntity
8
0
100
AcDbLine
10
-8.0000001192092896
20
-3.9040805324296102
30
-2.0991529575187516e-14
11
-10.00000011920929
21
-2.7493799940503205
31
-8.0891089082711305e-15
0
LINE
5
139
100
AcDbEntity
8
0
100
AcDbLine
10
-16.506360837263269
20
-14.004037880967321
30
-3.9851023652223874e-15
11
-14.506109505453574
21
-15.158883525834559
31
-3.7988197117391525e-15
0
CIRCLE
5
140
100
AcDbEntity
8
0
100
AcDbCircle
10
0
20
-16.028436254237317
30
0
40
12.599999999999969
210
0
220
-0
230
1
0
LINE
5
141
100
AcDbEntity
8
0
100
AcDbLine
10
8.2648816754668726
20
-3.7511510946211235
30
2.0074170855302995e-31
11
6.0978607178327993
21
-5.0022812278506983
31
0
0
LINE
5
142
100
AcDbEntity
8
0
100
AcDbLine
10
14.764881675466771
20
-15.009481343818869
30
-1.3684555315672042e-46
11
12.597860717832683
21
-16.260611477048442
31
0
0
LINE
5
143
100
AcDbEntity
8
0
100
AcDbLine
10
6.4999999999999982
20
-29.324676324272161
30
3.3803192534369887e-31
11
6.4999999999999991
21
-26.822416057812973
31
0
0
LINE
5
144
100
AcDbEntity
8
0
100
AcDbLine
10
-6.4999999999999929
20
-29.324676324272158
30
3.6484816866471802e-31
11
-6.4999999999999911
21
-26.822416057812983
31
0
0
LINE
5
145
100
AcDbEntity
8
0
100
AcDbLine
10
-14.764881675466746
20
-15.009481343818667
30
-3.1725745881179617e-32
11
-12.59786071783269
21
-16.260611477048261
31
0
0
LINE
5
146
100
AcDbEntity
8
0
100
AcDbLine
10
-8.2648816754667109
20
-3.7511510946210116
30
-3.6484816866471807e-31
11
-6.0978607178326403
21
-5.0022812278506112
31
0
0
LINE
5
147
100
AcDbEntity
8
0
100
AcDbLine
10
-19.812825875809697
20
-12.094747897428723
30
-2.7755575615628914e-16
11
-13.421119577681555
21
-0.77449725723918017
31
7.9797279894933126e-16
0
LINE
5
148
100
AcDbEntity
8
0
100
AcDbLine
10
6.499738890337631
20
-35.27843625423732
30
6.591949208711867e-16
11
-6.499738890337631
21
-35.27843625423732
31
6.591949208711867e-16
0
LINE
5
149
100
AcDbEntity
8
0
100
AcDbLine
10
20.673361844363299
20
-13.329439608169469
30
-2.0177195364949341e-15
11
18.85220512007195
21
-14.381413356912214
31
-4.0166019018645572e-16
0
LINE
5
150
100
AcDbEntity
8
0
100
AcDbLine
10
12.671348048636339
20
0.52414512513591882
30
1.2606906358506657e-15
11
10.85246622973445
21
-0.52545915156268852
31
9.2207723297949795e-16
0
LINE
5
151
100
AcDbEntity
8
0
100
AcDbLine
10
-20.55961122883533
20
-13.417367707595591
30
-4.0321687609055784e-16
11
-19.812825875809697
21
-12.094747897428723
31
-2.7755575615628914e-16
0
LINE
5
152
100
AcDbEntity
8
0
100
AcDbLine
10
8.0000001192092896
20
-35.27843625423732
30
6.591949208711867e-16
11
6.499738890337631
21
-35.27843625423732
31
6.591949208711867e-16
0
LINE
5
153
100
AcDbEntity
8
0
100
AcDbLine
10
-8.0000001192092896
20
-35.27843625423732
30
6.591949208711867e-16
11
-6.499738890337631
21
-35.27843625423732
31
6.591949208711867e-16
0
ARC
5
154
100
AcDbEntity
8
0
100
AcDbCircle
10
-5.5511151231257827e-16
20
-16.028436254237327
30
3.28429327576129e-46
40
19.249999999999993
210
0
220
0
230
1
100
AcDbArc
50
-65.443874303189659
51
5.444984817700238
0
ARC
5
155
100
AcDbEntity
8
0
100
AcDbCircle
10
-5.5511151231257827e-16
20
-16.028436254237327
30
3.28429327576129e-46
40
19.249999999999993
210
0
220
-0
230
1
100
AcDbArc
50
54.555015182298796
51
125.44498481770043
0
ARC
5
156
100
AcDbEntity
8
0
100
AcDbCircle
10
-5.5511151231257827e-16
20
-16.028436254237327
30
3.28429327576129e-46
40
19.25
210
0
220
0
230
1
100
AcDbArc
50
174.56649691171671
51
245.44387430318966
0
LINE
5
157
100
AcDbEntity
8
0
100
AcDbLine
10
-17.063105190361789
20
-13.682601378836083
30
4.5102810375396984e-16
11
-10.563105190361735
21
-2.4242711296384094
31
-3.1225022567582528e-16
0
LINE
5
158
100
AcDbEntity
8
0
100
AcDbLine
10
-6.5
20
-31.978436254237316
30
-2.0816681711721685e-16
11
6.5
21
-31.978436254237316
31
0
0
ENDSEC
0
SECTION
2
OBJECTS
0
DICTIONARY
5
C
100
AcDbDictionary
3
ACAD_GROUP
350
D
3
ACAD_MLINESTYLE
350
17
0
DICTIONARY
5
D
100
AcDbDictionary
0
DICTIONARY
5
1A
330
C
100
AcDbDictionary
0
DICTIONARY
5
17
100
AcDbDictionary
0
ENDSEC
0
EOF
