0
SECTION
2
HEADER
9
$INSUNITS
70
4
9
$ACADVER
1
AC1014
9
$HANDSEED
5
FFFF
0
ENDSEC
0
SECTION
2
TABLES
0
TABLE
2
VPORT
5
8
100
AcDbSymbolTable
0
ENDTAB
0
TABLE
2
LTYPE
5
5
100
AcDbSymbolTable
0
LTYPE
5
14
100
AcDbSymbolTableRecord
100
AcDbLinetypeTableRecord
2
BYBLOCK
70
0
0
LTYPE
5
15
100
AcDbSymbolTableRecord
100
AcDbLinetypeTableRecord
2
BYLAYER
70
0
0
LTYPE
5
16
100
AcDbSymbolTableRecord
100
AcDbLinetypeTableRecord
2
DASHED
70
0
3
Dashed __ __ __ __ __ __ __ __ __ __ __ __ __ _
72
65
73
2
40
0.75
49
0.5
74
0
49
-0.25
74
0
0
ENDTAB
0
TABLE
2
LAYER
5
2
100
AcDbSymbolTable
70
2
0
LAYER
5
50
100
AcDbSymbolTableRecord
100
AcDbLayerTableRecord
2
0
70
0
62
7
6
CONTINUOUS
0
ENDTAB
0
TABLE
2
STYLE
5
3
100
AcDbSymbolTable
70
1
0
STYLE
5
11
100
AcDbSymbolTableRecord
100
AcDbTextStyleTableRecord
2
STANDARD
70
0
0
ENDTAB
0
TABLE
2
VIEW
5
6
100
AcDbSymbolTable
70
0
0
ENDTAB
0
TABLE
2
UCS
5
7
100
AcDbSymbolTable
70
0
0
ENDTAB
0
TABLE
2
APPID
5
9
100
AcDbSymbolTable
70
2
0
APPID
5
12
100
AcDbSymbolTableRecord
100
AcDbRegAppTableRecord
2
ACAD
70
0
0
ENDTAB
0
TABLE
2
DIMSTYLE
5
A
100
AcDbSymbolTable
70
1
0
ENDTAB
0
TABLE
2
BLOCK_RECORD
5
1
100
AcDbSymbolTable
70
1
0
BLOCK_RECORD
5
1F
100
AcDbSymbolTableRecord
100
AcDbBlockTableRecord
2
*MODEL_SPACE
0
BLOCK_RECORD
5
1B
100
AcDbSymbolTableRecord
100
AcDbBlockTableRecord
2
*PAPER_SPACE
0
ENDTAB
0
ENDSEC
0
SECTION
2
BLOCKS
0
BLOCK
5
20
100
AcDbEntity
100
AcDbBlockBegin
2
*MODEL_SPACE
0
ENDBLK
5
21
100
AcDbEntity
100
AcDbBlockEnd
0
BLOCK
5
1C
100
AcDbEntity
100
AcDbBlockBegin
2
*PAPER_SPACE
0
ENDBLK
5
1D
100
AcDbEntity
100
AcDbBlockEnd
0
ENDSEC
0
SECTION
2
ENTITIES
0
POINT
5
100
100
AcDbEntity
8
0
100
AcDbPoint
10
-27.580970388562722
20
13.200000000000021
30
0
0
POINT
5
101
100
AcDbEntity
8
0
100
AcDbPoint
10
-18.380970388562723
20
13.200000000000014
30
0
0
LWPOLYLINE
5
102
100
AcDbEntity
8
0
100
AcDbPolyline
90
2
70
1
43
0.0
10
-16.30873809947574
20
5.8000000000000052
42
7.8458882116524711
10
-29.653202677649716
20
5.8000000000000229
0
LWPOLYLINE
5
103
100
AcDbEntity
8
0
100
AcDbPolyline
90
4
70
1
43
0.0
10
-17.671067946120289
20
4.2000000000000126
10
-28.290872831005164
20
4.2000000000000206
42
-0.06101710965850847
10
-29.739028042580372
20
4.3773849102669269
42
-8.1639143340672788
10
-16.222912734545083
20
4.3773849102669136
42
-0.061017109658509698
0
LWPOLYLINE
5
104
100
AcDbEntity
8
0
100
AcDbPolyline
90
6
70
1
43
0.0
10
-32.289634232020262
20
21.206310998377894
42
0.43729362935043214
10
-29.48097038856271
20
23.803621969939872
10
-29.480970388562699
20
39.295555354769547
42
0.43729362935055233
10
-32.289634232021292
20
41.89286632633145
42
0.19639630191537991
10
-33.911440278115421
20
41.077171146572994
42
0.37465223905014933
10
-33.911440278115307
20
22.022006178136362
42
0.19639630191548174
0
ARC
5
105
100
AcDbEntity
8
0
100
AcDbCircle
10
-22.98097038856271
20
31.549588662354708
30
0
40
13.5
210
0
220
0
230
1
100
AcDbArc
50
138.92285095252299
51
221.07714904747743
0
ARC
5
106
100
AcDbEntity
8
0
100
AcDbCircle
10
-32.102259055016944
20
23.598985347938019
30
0
40
1.3999999999999948
210
0
220
0
230
1
100
AcDbArc
50
221.07714904747723
51
265.52219027331449
0
ARC
5
107
100
AcDbEntity
8
0
100
AcDbCircle
10
-32.08623354645745
20
23.803621969939876
30
0
40
1.6052631578947407
210
0
220
0
230
1
100
AcDbArc
50
265.52219027331455
51
281.37362012148145
0
SPLINE
5
108
100
AcDbEntity
8
0
100
AcDbSpline
70
0
71
3
72
16
73
12
74
0
42
0.000000001
43
0.0000000001
44
0.0000000001
40
0.18768216027653523
40
0.18768216027653523
40
0.18768216027653523
40
0.18768216027653523
40
0.22627755501945027
40
0.22627755501945027
40
0.26487294976236531
40
0.26487294976236531
40
0.32011863515771749
40
0.32011863515771749
40
0.37536432055306967
40
0.37536432055306967
40
0.40692924732496188
40
0.40692924732496188
40
0.40692924732496188
40
0.40692924732496188
10
-30.480970388562703
20
23.803621969939872
30
0
10
-30.480970388562703
20
23.674970654130156
30
0
10
-30.497490715147613
20
23.535878563598025
30
0
10
-30.566201517373457
20
23.269493758277832
30
0
10
-30.618310542987256
20
23.142133736016575
30
0
10
-30.763615359434951
20
22.87663834405069
30
0
10
-30.881450523857417
20
22.726537738623023
30
0
10
-31.160307327377375
20
22.47913226906222
30
0
10
-31.321377297083419
20
22.381807729863922
30
0
10
-31.572154780787987
20
22.279717322901806
30
0
10
-31.669321072664836
20
22.250497759206933
30
0
10
-31.769666040736624
20
22.229882849114606
30
0
0
ARC
5
109
100
AcDbEntity
8
0
100
AcDbCircle
10
-32.102259055017008
20
39.500191976771319
30
0
40
1.4000000000000039
210
0
220
0
230
1
100
AcDbArc
50
94.477809726708486
51
138.92285095252257
0
ARC
5
110
100
AcDbEntity
8
0
100
AcDbCircle
10
-32.086233546457436
20
39.295555354769547
30
0
40
1.6052631578947387
210
0
220
-0
230
1
100
AcDbArc
50
78.626379878518236
51
94.477809726708557
0
SPLINE
5
111
100
AcDbEntity
8
0
100
AcDbSpline
70
0
71
3
72
17
73
13
74
0
42
0.000000001
43
0.0000000001
44
0.0000000001
40
-0.18768216027653467
40
-0.18768216027653467
40
-0.18768216027653467
40
-0.18768216027653467
40
-0.15611723350464277
40
-0.15611723350464277
40
-0.15611723350464277
40
-0.10087154810929058
40
-0.10087154810929058
40
-0.045625862713938398
40
-0.045625862713938398
40
-0.0070304679710232465
40
-0.0070304679710232465
40
0.031564926771891905
40
0.031564926771891905
40
0.031564926771891905
40
0.031564926771891905
10
-31.76966604073661
20
40.869294475594813
30
0
10
-31.669321072664822
20
40.848679565502486
30
0
10
-31.572154780787969
20
40.819460001807613
30
0
10
-31.480970388562696
20
40.782339238119604
30
0
10
-31.321377297083401
20
40.717369594845501
30
0
10
-31.16030732737736
20
40.620045055647211
30
0
10
-30.881450523857403
20
40.3726395860864
30
0
10
-30.763615359434937
20
40.222538980658733
30
0
10
-30.618310542987246
20
39.957043588692841
30
0
10
-30.56620151737345
20
39.829683566431591
30
0
10
-30.497490715147606
20
39.563298761111398
30
0
10
-30.480970388562696
20
39.424206670579267
30
0
10
-30.480970388562696
20
39.295555354769547
30
0
0
LWPOLYLINE
5
112
100
AcDbEntity
8
0
100
AcDbPolyline
90
6
70
1
43
0.0
10
-12.050500499010116
20
41.07717114657305
42
0.19639630191548085
10
-13.672306545105148
20
41.892866326331522
42
0.43729362935043392
10
-16.480970388562714
20
39.29555535476954
10
-16.480970388562721
20
23.803621969939861
42
0.43729362935054944
10
-13.672306545104147
20
21.206310998377983
42
0.19639630191538213
10
-12.050500499010022
20
22.022006178136444
42
0.37465223905014938
0
ARC
5
113
100
AcDbEntity
8
0
100
AcDbCircle
10
-13.875707230667974
20
39.295555354769533
30
0
40
1.6052631578947332
210
0
220
-0
230
1
100
AcDbArc
50
85.522190273313925
51
101.37362012148283
0
SPLINE
5
114
100
AcDbEntity
8
0
100
AcDbSpline
70
0
71
3
72
17
73
13
74
0
42
0.000000001
43
0.0000000001
44
0.0000000001
40
-0.031564926771886215
40
-0.031564926771886215
40
-0.031564926771886215
40
-0.031564926771886215
40
0.0070304679710294082
40
0.0070304679710294082
40
0.045625862713945031
40
0.045625862713945031
40
0.10087154810929783
40
0.10087154810929783
40
0.15611723350465073
40
0.15611723350465073
40
0.15611723350465073
40
0.18768216027653695
40
0.18768216027653695
40
0.18768216027653695
40
0.18768216027653695
10
-15.48097038856271
20
39.295555354769533
30
0
10
-15.48097038856271
20
39.424206670579245
30
0
10
-15.464450061977802
20
39.563298761111376
30
0
10
-15.395739259751958
20
39.829683566431569
30
0
10
-15.343630234138161
20
39.957043588692834
30
0
10
-15.198325417690466
20
40.222538980658726
30
0
10
-15.080490253267998
20
40.372639586086393
30
0
10
-14.801633449748037
20
40.620045055647196
30
0
10
-14.640563480041994
20
40.717369594845493
30
0
10
-14.480970388562698
20
40.782339238119604
30
0
10
-14.389785996337443
20
40.819460001807606
30
0
10
-14.292619704460613
20
40.848679565502479
30
0
10
-14.192274736388839
20
40.869294475594799
30
0
0
ARC
5
115
100
AcDbEntity
8
0
100
AcDbCircle
10
-13.859681722108476
20
39.50019197677139
30
0
40
1.3999999999999977
210
0
220
-0
230
1
100
AcDbArc
50
41.077149047477491
51
85.522190273313967
0
ARC
5
116
100
AcDbEntity
8
0
100
AcDbCircle
10
-22.98097038856271
20
31.549588662354708
30
0
40
13.499999999999998
210
-0
220
0
230
1
100
AcDbArc
50
-41.077149047476965
51
41.077149047477427
0
ARC
5
117
100
AcDbEntity
8
0
100
AcDbCircle
10
-13.859681722108411
20
23.598985347938097
30
0
40
1.3999999999999988
210
-0
220
0
230
1
100
AcDbArc
50
274.47780972670802
51
318.92285095252294
0
ARC
5
118
100
AcDbEntity
8
0
100
AcDbCircle
10
-13.875707230667979
20
23.803621969939861
30
0
40
1.6052631578947418
210
0
220
0
230
1
100
AcDbArc
50
258.62637987851696
51
274.47780972670802
0
SPLINE
5
119
100
AcDbEntity
8
0
100
AcDbSpline
70
0
71
3
72
16
73
12
74
0
42
0.000000001
43
0.0000000001
44
0.0000000001
40
0.58848156905598037
40
0.58848156905598037
40
0.58848156905598037
40
0.58848156905598037
40
0.62004649582786731
40
0.62004649582786731
40
0.67529218122322021
40
0.67529218122322021
40
0.73053786661857312
40
0.73053786661857312
40
0.76913326136148852
40
0.76913326136148852
40
0.80772865610440403
40
0.80772865610440403
40
0.80772865610440403
40
0.80772865610440403
10
-14.192274736388848
20
22.229882849114603
30
0
10
-14.29261970446062
20
22.25049775920693
30
0
10
-14.389785996337455
20
22.279717322901796
30
0
10
-14.640563480042008
20
22.381807729863901
30
0
10
-14.801633449748049
20
22.479132269062205
30
0
10
-15.080490253268009
20
22.726537738623009
30
0
10
-15.198325417690477
20
22.876638344050676
30
0
10
-15.343630234138173
20
23.142133736016568
30
0
10
-15.395739259751966
20
23.269493758277825
30
0
10
-15.464450061977811
20
23.535878563598022
30
0
10
-15.480970388562721
20
23.674970654130153
30
0
10
-15.480970388562717
20
23.803621969939869
30
0
0
LINE
5
120
100
AcDbEntity
8
0
100
AcDbLine
10
-30.480970388562696
20
39.295555354769547
30
0
11
-30.480970388562703
21
23.803621969939872
31
0
0
LINE
5
121
100
AcDbEntity
8
0
100
AcDbLine
10
-15.48097038856271
20
39.295555354769533
30
0
11
-15.480970388562717
21
23.803621969939872
31
0
0
ARC
5
122
100
AcDbEntity
8
0
100
AcDbCircle
10
-22.98097038856271
20
31.549588662354708
30
0
40
25.400000000000009
210
-0
220
0
230
1
100
AcDbArc
50
-60.332326464763668
51
127.34099301663012
0
ARC
5
123
100
AcDbEntity
8
0
100
AcDbCircle
10
-10.903738869486528
20
10.348162322727617
30
0
40
1.0000000000000011
210
0
220
0
230
1
100
AcDbArc
50
186.53892492845003
51
299.66767353523585
0
ARC
5
124
100
AcDbEntity
8
0
100
AcDbCircle
10
-14.380970388562719
20
9.9495886623546994
30
0
40
2.4999999999999964
210
0
220
-0
230
1
100
AcDbArc
50
6.5389249284500952
51
113.57817847820178
0
CIRCLE
5
125
100
AcDbEntity
8
0
100
AcDbCircle
10
-14.380970388562721
20
9.9495886623546959
30
0
40
0.94999999999999962
210
-0
220
0
230
1
0
ARC
5
126
100
AcDbEntity
8
0
100
AcDbCircle
10
-15.780970388562716
20
13.157391648823788
30
0
40
1.0000000000000009
210
0
220
0
230
1
100
AcDbArc
50
180
51
293.57817847820178
0
LINE
5
127
100
AcDbEntity
8
0
100
AcDbLine
10
-18.380970388562719
20
13.200000000000014
30
0
11
-16.780970388562718
21
13.200000000000012
31
0
0
LINE
5
128
100
AcDbEntity
8
0
100
AcDbLine
10
-18.380970388562723
20
5.8000000000000096
30
0
11
-18.380970388562719
21
13.200000000000014
31
0
0
LINE
5
129
100
AcDbEntity
8
0
100
AcDbLine
10
-27.580970388562722
20
13.200000000000021
30
0
11
-27.580970388562733
21
5.800000000000014
31
0
0
LINE
5
130
100
AcDbEntity
8
0
100
AcDbLine
10
-29.180970388562724
20
13.200000000000021
30
0
11
-27.580970388562722
21
13.200000000000021
31
0
0
LINE
5
131
100
AcDbEntity
8
0
100
AcDbLine
10
-29.180970388562724
20
8.2360732689182115
30
0
11
-29.180970388562724
21
13.200000000000021
31
0
0
ARC
5
132
100
AcDbEntity
8
0
100
AcDbCircle
10
-30.180970388562724
20
8.2360732689182132
30
0
40
1.0000000000000029
210
0
220
0
230
1
100
AcDbArc
50
252.83754745187798
51
360
0
LINE
5
133
100
AcDbEntity
8
0
100
AcDbLine
10
-27.160766285675994
20
13.200000000000021
30
0
11
-18.801174491449451
21
13.200000000000014
31
0
0
LINE
5
134
100
AcDbEntity
8
0
100
AcDbLine
10
-27.580970388562726
20
13.200000000000021
30
0
11
-27.160766285675994
21
13.200000000000021
31
0
0
LINE
5
135
100
AcDbEntity
8
0
100
AcDbLine
10
-18.801174491449451
20
13.200000000000014
30
0
11
-18.380970388562723
21
13.200000000000017
31
0
0
ARC
5
136
100
AcDbEntity
8
0
100
AcDbCircle
10
-22.98097038856271
20
31.549588662354708
30
0
40
25.400000000000013
210
0
220
0
230
1
100
AcDbArc
50
203.93736378871117
51
252.83754745187807
0
ARC
5
137
100
AcDbEntity
8
0
100
AcDbCircle
10
-45.282315639466319
20
21.649588662354724
30
0
40
1.0000000000000009
210
0
220
-0
230
1
100
AcDbArc
50
90
51
203.93736378871122
0
LINE
5
138
100
AcDbEntity
8
0
100
AcDbLine
10
-40.780970388562714
20
22.649588662354716
30
0
11
-45.282315639466319
21
22.649588662354724
31
0
0
ARC
5
139
100
AcDbEntity
8
0
100
AcDbCircle
10
-40.780970388562714
20
23.64958866235472
30
0
40
1.0000000000000009
210
-0
220
0
230
1
100
AcDbArc
50
-90
51
0
0
LINE
5
140
100
AcDbEntity
8
0
100
AcDbLine
10
-39.780970388562707
20
39.135375099981616
30
0
11
-39.780970388562714
21
23.649588662354727
31
0
0
CIRCLE
5
141
100
AcDbEntity
8
0
100
AcDbCircle
10
-43.180970388562699
20
43.149588662354716
30
0
40
0.95000000000000129
210
-0
220
0
230
1
0
ARC
5
142
100
AcDbEntity
8
0
100
AcDbCircle
10
-38.780970388562686
20
39.135375099981616
30
0
40
1.0000000000000169
210
0
220
0
230
1
100
AcDbArc
50
135.0000000000006
51
180
0
LINE
5
143
100
AcDbEntity
8
0
100
AcDbLine
10
-39.073863607376154
20
40.256695443541261
30
0
11
-39.488077169749253
21
39.842481881168169
31
0
0
ARC
5
144
100
AcDbEntity
8
0
100
AcDbCircle
10
-39.7809703885627
20
40.963802224727814
30
0
40
1.0000000000000042
210
-0
220
0
230
1
100
AcDbArc
50
-45.000000000000306
51
0
0
LINE
5
145
100
AcDbEntity
8
0
100
AcDbLine
10
-38.780970388562693
20
50.948557707126156
30
0
11
-38.7809703885627
21
40.963802224727814
31
0
0
ARC
5
146
100
AcDbEntity
8
0
100
AcDbCircle
10
-37.780970388562721
20
50.948557707126163
30
0
40
0.99999999999997968
210
0
220
0
230
1
100
AcDbArc
50
127.34099301662836
51
180
0
LINE
5
147
100
AcDbEntity
8
0
100
AcDbLine
10
-27.580970388562726
20
13.200000000000021
30
0
11
-18.380970388562723
21
13.200000000000017
31
0
0
LINE
5
148
100
AcDbEntity
8
0
100
AcDbLine
10
-16.780970388562718
20
13.200000000000012
30
0
11
-16.780970388562718
21
13.157391648823786
31
0
0
LINE
5
149
100
AcDbEntity
8
0
100
AcDbLine
10
-27.580970388562733
20
5.800000000000014
30
0
11
-27.580970388562733
21
4.2000000000000162
31
0
0
LINE
5
150
100
AcDbEntity
8
0
100
AcDbLine
10
-18.380970388562723
20
5.8000000000000096
30
0
11
-18.380970388562723
21
4.2000000000000135
31
0
0
LINE
5
151
100
AcDbEntity
8
0
100
AcDbLine
10
-15.480970388562785
20
23.803621969939883
30
0
11
-15.48097038856274
21
39.295555354769498
31
0
0
ARC
5
152
100
AcDbEntity
8
0
100
AcDbCircle
10
-14.480970388562788
20
23.803621969939876
30
0
40
0.99999999999999645
210
0
220
0
230
1
100
AcDbArc
50
180
51
317.65739454779305
0
ARC
5
153
100
AcDbEntity
8
0
100
AcDbCircle
10
-22.980970388562728
20
31.549588662354711
30
0
40
12.499999999999956
210
-0
220
0
230
1
100
AcDbArc
50
-42.342605452207351
51
42.342605452207017
0
ARC
5
154
100
AcDbEntity
8
0
100
AcDbCircle
10
-14.480970388562744
20
39.295555354769498
30
0
40
1.0000000000000033
210
0
220
-0
230
1
100
AcDbArc
50
42.342605452206648
51
180
0
ARC
5
155
100
AcDbEntity
8
0
100
AcDbCircle
10
-14.480970388562788
20
23.803621969939876
30
0
40
0.99999999999999645
210
0
220
0
230
1
100
AcDbArc
50
180
51
317.65739454779305
0
ARC
5
156
100
AcDbEntity
8
0
100
AcDbCircle
10
-31.480970388562678
20
39.295555354769533
30
0
40
0.99999999999999645
210
-0
220
0
230
1
100
AcDbArc
50
0
51
137.65739454779271
0
ARC
5
157
100
AcDbEntity
8
0
100
AcDbCircle
10
-22.980970388562728
20
31.549588662354711
30
0
40
12.499999999999956
210
0
220
0
230
1
100
AcDbArc
50
137.65739454779271
51
222.34260545220701
0
LINE
5
158
100
AcDbEntity
8
0
100
AcDbLine
10
-30.480970388562724
20
23.803621969939925
30
0
11
-30.480970388562682
21
39.295555354769533
31
0
0
ARC
5
159
100
AcDbEntity
8
0
100
AcDbCircle
10
-14.480970388562744
20
39.295555354769498
30
0
40
1.0000000000000033
210
0
220
-0
230
1
100
AcDbArc
50
42.342605452206648
51
180
0
ARC
5
160
100
AcDbEntity
8
0
100
AcDbCircle
10
-31.480970388562717
20
23.803621969939933
30
0
40
0.99999999999999689
210
0
220
0
230
1
100
AcDbArc
50
222.34260545220701
51
360
0
ARC
5
161
100
AcDbEntity
8
0
100
AcDbCircle
10
-22.980970388562728
20
31.549588662354711
30
0
40
12.499999999999956
210
-0
220
0
230
1
100
AcDbArc
50
-42.342605452207351
51
42.342605452207017
0
LINE
5
162
100
AcDbEntity
8
0
100
AcDbLine
10
-15.480970388562785
20
23.803621969939883
30
0
11
-15.48097038856274
21
39.295555354769498
31
0
0
LINE
5
163
100
AcDbEntity
8
0
100
AcDbLine
10
-30.480970388562696
20
39.295555354769547
30
0
11
-30.480970388562703
21
23.803621969939872
31
0
0
ENDSEC
0
SECTION
2
OBJECTS
0
DICTIONARY
5
C
100
AcDbDictionary
3
ACAD_GROUP
350
D
3
ACAD_MLINESTYLE
350
17
0
DICTIONARY
5
D
100
AcDbDictionary
0
DICTIONARY
5
1A
330
C
100
AcDbDictionary
0
DICTIONARY
5
17
100
AcDbDictionary
0
ENDSEC
0
EOF
